{
  "accessors": [
    {
      "bufferView": 2,
      "componentType": 5126,
      "count": 8557,
      "max": [
        1.8053100109100342,
        1.2035399675369263,
        6.2584099769592285
      ],
      "min": [
        -1.865486979484558,
        -0.9026560187339783,
        0.24070799350738525
      ],
      "type": "VEC3"
    },
    {
      "bufferView": 2,
      "byteOffset": 102684,
      "componentType": 5126,
      "count": 8557,
      "max": [
        1.0,
        1.0,
        1.0
      ],
      "min": [
        -1.0,
        -1.0,
        -1.0
      ],
      "type": "VEC3"
    },
    {
      "bufferView": 1,
      "componentType": 5126,
      "count": 8557,
      "max": [
        0.9902340173721313,
        0.5
      ],
      "min": [
        0.9433590173721313,
        0.5
      ],
      "type": "VEC2"
    },
    {
      "bufferView": 0,
      "componentType": 5125,
      "count": 15717,
      "type": "SCALAR"
    },
    {
      "bufferView": 2,
      "byteOffset": 205368,
      "componentType": 5126,
      "count": 7024,
      "max": [
        1.023008942604065,
        1.564600944519043,
        7.040709972381592
      ],
      "min": [
        -1.0831860303878784,
        -0.4814170002937317,
        5.3557538986206055
      ],
      "type": "VEC3"
    },
    {
      "bufferView": 2,
      "byteOffset": 289656,
      "componentType": 5126,
      "count": 7024,
      "max": [
        1.0,
        1.0,
        1.0
      ],
      "min": [
        -1.0,
        -1.0,
        -1.0
      ],
      "type": "VEC3"
    },
    {
      "bufferView": 1,
      "byteOffset": 68456,
      "componentType": 5126,
      "count": 7024,
      "max": [
        0.9941409826278687,
        0.5
      ],
      "min": [
        0.9941409826278687,
        0.5
      ],
      "type": "VEC2"
    },
    {
      "bufferView": 0,
      "byteOffset": 62868,
      "componentType": 5125,
      "count": 13503,
      "type": "SCALAR"
    },
    {
      "bufferView": 2,
      "byteOffset": 373944,
      "componentType": 5126,
      "count": 138,
      "max": [
        -0.5415930151939392,
        -0.36106300354003906,
        4.8141608238220215
      ],
      "min": [
        -1.3840709924697876,
        -0.5415940284729004,
        4.212390899658203
      ],
      "type": "VEC3"
    },
    {
      "bufferView": 2,
      "byteOffset": 375600,
      "componentType": 5126,
      "count": 138,
      "max": [
        1.0,
        -0.0,
        1.0
      ],
      "min": [
        -1.0,
        -1.0,
        -1.0
      ],
      "type": "VEC3"
    },
    {
      "bufferView": 1,
      "byteOffset": 124648,
      "componentType": 5126,
      "count": 138,
      "max": [
        0.9746090173721313,
        0.5
      ],
      "min": [
        0.9394530057907104,
        0.5
      ],
      "type": "VEC2"
    },
    {
      "bufferView": 0,
      "byteOffset": 116880,
      "componentType": 5125,
      "count": 255,
      "type": "SCALAR"
    },
    {
      "bufferView": 2,
      "byteOffset": 377256,
      "componentType": 5126,
      "count": 5634,
      "max": [
        3.3097360134124756,
        0.9628310203552246,
        7.100887775421143
      ],
      "min": [
        -3.3097360134124756,
        -0.962831974029541,
        0.0
      ],
      "type": "VEC3"
    },
    {
      "bufferView": 2,
      "byteOffset": 444864,
      "componentType": 5126,
      "count": 5634,
      "max": [
        1.0,
        1.0,
        1.0
      ],
      "min": [
        -1.0,
        -1.0,
        -1.0
      ],
      "type": "VEC3"
    },
    {
      "bufferView": 1,
      "byteOffset": 125752,
      "componentType": 5126,
      "count": 5634,
      "max": [
        0.9863280057907104,
        0.5
      ],
      "min": [
        0.9707030057907104,
        0.5
      ],
      "type": "VEC2"
    },
    {
      "bufferView": 0,
      "byteOffset": 117900,
      "componentType": 5125,
      "count": 11181,
      "type": "SCALAR"
    }
  ],
  "asset": {
    "extras": {
      "author": "Leo Fossa (https://sketchfab.com/utsuki)",
      "license": "CC-BY-4.0 (http://creativecommons.org/licenses/by/4.0/)",
      "source": "https://sketchfab.com/3d-models/wreck-it-ralph-1015bf1ff57445b69af7a2639788073b",
      "title": "Wreck- It Ralph"
    },
    "generator": "Sketchfab-12.68.0",
    "version": "2.0"
  },
  "bufferViews": [
    {
      "buffer": 0,
      "byteLength": 162624,
      "name": "floatBufferViews",
      "target": 34963
    },
    {
      "buffer": 0,
      "byteLength": 170824,
      "byteOffset": 162624,
      "byteStride": 8,
      "name": "floatBufferViews",
      "target": 34962
    },
    {
      "buffer": 0,
      "byteLength": 512472,
      "byteOffset": 333448,
      "byteStride": 12,
      "name": "floatBufferViews",
      "target": 34962
    }
  ],
  "buffers": [
    {
      "byteLength": 845920,
      "uri": "scene.bin"
    }
  ],
  "images": [
    {
      "uri": "textures/base_baseColor.png"
    }
  ],
  "materials": [
    {
      "doubleSided": true,
      "name": "base",
      "pbrMetallicRoughness": {
        "baseColorTexture": {
          "index": 0
        },
        "metallicFactor": 0.0,
        "roughnessFactor": 0.4215891768
      }
    },
    {
      "doubleSided": true,
      "name": "hair",
      "pbrMetallicRoughness": {
        "baseColorTexture": {
          "index": 0
        },
        "metallicFactor": 0.0,
        "roughnessFactor": 0.6
      }
    },
    {
      "doubleSided": true,
      "name": "metal",
      "pbrMetallicRoughness": {
        "baseColorTexture": {
          "index": 0
        },
        "metallicFactor": 0.7874428353658537,
        "roughnessFactor": 0.0313452743902439
      }
    },
    {
      "doubleSided": true,
      "name": "skin",
      "pbrMetallicRoughness": {
        "baseColorTexture": {
          "index": 0
        },
        "metallicFactor": 0.0,
        "roughnessFactor": 0.6
      }
    }
  ],
  "meshes": [
    {
      "name": "Object_0",
      "primitives": [
        {
          "attributes": {
            "NORMAL": 1,
            "POSITION": 0,
            "TEXCOORD_0": 2
          },
          "indices": 3,
          "material": 0,
          "mode": 4
        }
      ]
    },
    {
      "name": "Object_1",
      "primitives": [
        {
          "attributes": {
            "NORMAL": 5,
            "POSITION": 4,
            "TEXCOORD_0": 6
          },
          "indices": 7,
          "material": 1,
          "mode": 4
        }
      ]
    },
    {
      "name": "Object_2",
      "primitives": [
        {
          "attributes": {
            "NORMAL": 9,
            "POSITION": 8,
            "TEXCOORD_0": 10
          },
          "indices": 11,
          "material": 2,
          "mode": 4
        }
      ]
    },
    {
      "name": "Object_3",
      "primitives": [
        {
          "attributes": {
            "NORMAL": 13,
            "POSITION": 12,
            "TEXCOORD_0": 14
          },
          "indices": 15,
          "material": 3,
          "mode": 4
        }
      ]
    }
  ],
  "nodes": [
    {
      "children": [
        1
      ],
      "matrix": [
        1.0,
        0.0,
        0.0,
        0.0,
        0.0,
        2.220446049250313e-16,
        -1.0,
        0.0,
        0.0,
        1.0,
        2.220446049250313e-16,
        0.0,
        0.0,
        0.0,
        0.0,
        1.0
      ],
      "name": "Sketchfab_model"
    },
    {
      "children": [
        2,
        3,
        4,
        5
      ],
      "name": "Wreck-It Ralph.obj.cleaner.materialmerger.gles"
    },
    {
      "mesh": 0,
      "name": "Object_2"
    },
    {
      "mesh": 1,
      "name": "Object_3"
    },
    {
      "mesh": 2,
      "name": "Object_4"
    },
    {
      "mesh": 3,
      "name": "Object_5"
    }
  ],
  "samplers": [
    {
      "magFilter": 9729,
      "minFilter": 9987,
      "wrapS": 10497,
      "wrapT": 10497
    }
  ],
  "scene": 0,
  "scenes": [
    {
      "name": "Sketchfab_Scene",
      "nodes": [
        0
      ]
    }
  ],
  "textures": [
    {
      "sampler": 0,
      "source": 0
    }
  ]
}
